<svg viewBox="0 0 206.36 206.36" xmlns="http://www.w3.org/2000/svg"><path d="m198.36 8v190.36h-190.36v-190.36zm8-8h-206.36v206.36h206.36z"/><path d="m12.05 12.03h182.36v182.36h-182.36z" fill="#fff"/><path d="m190.41 16v174.4h-174.36v-174.4zm8-8h-190.36v190.4h190.36z" fill="#fff"/><path d="m189.41 26.93v-10.82h-173.41v10.82c24.94 0 45.17 15.9 45.17 35.5s-20.27 35.51-45.17 35.51v9.66c24.94 0 45.17 15.89 45.17 35.5s-20.27 35.5-45.17 35.5v11.4h102.82c39 0 70.59-24.84 70.59-55.48 0-17.18-10.1-33.43-27.45-43.88-10.77-6.48-17.72-16.7-17.72-28.2 0-19.61 20.22-35.51 45.17-35.51zm-31.06 89.4a42.35 42.35 0 0 1 4.31 10.54 32.15 32.15 0 0 1 .85 11.35 31.23 31.23 0 0 1 -3.24 10.83 37.26 37.26 0 0 1 -6.56 9.06 59.69 59.69 0 0 1 -18.34 12.29 59.16 59.16 0 0 0 17.61-13 36 36 0 0 0 6-9 29.61 29.61 0 0 0 2.6-10.35c.47-7.14-1.94-14.19-5.74-20.21a67.59 67.59 0 0 0 -14.51-15.84c-2.8-2.33-5.72-4.28-8.77-6.65l-1.13-.85c-.37-.3-.73-.62-1.09-.92l-2.16-1.87c-.74-.6-1.38-1.33-2.07-2s-1.39-1.32-2-2.07a47.49 47.49 0 0 1 -6.76-9.54 33.49 33.49 0 0 1 -2.88-23.5 44.7 44.7 0 0 1 4.36-11.1 62.32 62.32 0 0 1 6.7-9.64c1.26-1.48 2.56-2.93 3.94-4.3.69-.7 1.39-1.37 2.12-2s1.42-1.29 2.32-2l4.75 6.32c-.56.4-1.29 1-1.93 1.53s-1.31 1.12-2 1.71c-1.28 1.16-2.5 2.4-3.68 3.68a53.8 53.8 0 0 0 -6.25 8.2c-3.57 5.82-5.71 12.45-5.15 19.08a28 28 0 0 0 2.56 9.65 43 43 0 0 0 5.61 8.7c.53.69 1.18 1.31 1.76 2s1.16 1.33 1.82 1.92l1.95 1.83c.32.3.64.62 1 .91l1 .86c2.67 2.27 5.78 4.58 8.54 7.1a70.87 70.87 0 0 1 14.46 17.28z"/></svg>