<?xml version="1.0" encoding="utf-8"?>
<!-- Generator: Adobe Illustrator 24.0.0, SVG Export Plug-In . SVG Version: 6.00 Build 0)  -->
<svg version="1.1" id="Layer_1" xmlns="http://www.w3.org/2000/svg" xmlns:xlink="http://www.w3.org/1999/xlink" x="0px" y="0px"
	 viewBox="0 0 400 400" style="enable-background:new 0 0 400 400;" xml:space="preserve">
<style type="text/css">
	.st0{fill:#FFFFFF;}
</style>
<g>
	<path class="st0" d="M200.7,284.5c-8.37,0-16.25-3.41-22.18-9.61L9.82,98.69c-9.48-9.9-11.97-24.03-6.51-36.86
		c5.12-12,16.09-19.47,28.65-19.49l1.35,0c8.33,0,16.45,3.53,22.3,9.69L177.2,179.91c6.13,6.45,14.3,10,22.99,10
		c8.67,0,16.81-3.54,22.94-9.95L345.78,51.49c5.92-6.21,13.8-9.63,22.17-9.64c12.57,0,23.54,7.43,28.69,19.38
		c5.5,12.78,3.07,26.9-6.34,36.84L223,274.76C217.06,281.04,209.14,284.5,200.7,284.5C200.7,284.5,200.7,284.5,200.7,284.5z"/>
	<path class="st0" d="M368,41.35v1c12.32,0,23.11,7.31,28.18,19.08c5.42,12.6,3.03,26.51-6.24,36.3l-67.85,71.67l-99.44,105.03
		C216.79,280.6,209,284,200.7,284c-8.23,0-15.98-3.36-21.82-9.46L78.54,169.74l-68.36-71.4c-9.34-9.76-11.8-23.67-6.41-36.32
		c5.04-11.82,15.84-19.17,28.19-19.19l1.39,0c8.28,0,16.05,3.39,21.9,9.54l23.63,24.85l97.96,103.04
		c6.23,6.55,14.52,10.16,23.35,10.16c8.8,0,17.08-3.59,23.3-10.11l98.29-102.95l24.36-25.52c5.83-6.11,13.58-9.48,21.83-9.49
		L368,41.35 M368,41.35c-0.02,0-0.03,0-0.05,0h0c-8.45,0.01-16.55,3.54-22.53,9.8l-24.36,25.52l-98.29,102.95
		c-6.24,6.53-14.41,9.8-22.58,9.8c-8.19,0-16.38-3.28-22.62-9.85L79.6,76.53L55.98,51.68c-5.99-6.3-14.13-9.85-22.62-9.85
		c-0.02,0-0.03,0-0.04,0l-1.35,0C3.5,41.88-10.7,77.97,9.46,99.03l68.36,71.4l100.34,104.8c6.23,6.51,14.39,9.76,22.54,9.76
		c8.21,0,16.43-3.3,22.67-9.9l99.44-105.03l67.85-71.67C410.67,77.28,396.38,41.35,368,41.35L368,41.35z"/>
</g>
</svg>
